<?xml version="1.0" encoding="utf-8"?>
<!DOCTYPE svg PUBLIC "-//W3C//DTD SVG 1.1//EN" "http://www.w3.org/Graphics/SVG/1.1/DTD/svg11.dtd">
<svg version="1.1" id="Layer_1" xmlns="http://www.w3.org/2000/svg" xmlns:xlink="http://www.w3.org/1999/xlink" x="0px" y="0px"
	 width="350px" height="350px" viewBox="0 0 350 350" enable-background="new 0 0 350 350" xml:space="preserve">
<g opacity="0.5">
	<path fill="#646567" d="M350.118,326.195c0,0-52.432-75.432-65.512-143.434C271.5,114.763,259.095,96.363,220.14,55.991
		C181.193,15.613,87.669-28.645,28.879,24.471c-58.783,53.118-10.275,138.114-6.375,151.57l7.088-4.6
		c0,0-44.277-86.764,8.491-130.32c52.779-43.566,135.679,4.595,145.941,13.097c10.271,8.495,63.052,42.498,79.691,123.247
		c16.635,80.738-62.689,93.871-56.672,93.871c0,0-7.082,3.527-1.056,8.49c6.017,4.959,13.8,0,26.552,3.543
		c12.758,3.545,60.555,22.674,93.854,51.352c0,0-33.651-48.861-86.771-63.736c0,0,30.821-20.897,37.543-47.11
		C277.158,223.881,309.743,300.314,350.118,326.195z"/>
	<polygon fill="#B9BABC" points="120.248,35.111 139.38,42.551 23.214,124.357 	"/>
	<polygon fill="#B9BABC" points="171.607,57.777 186.488,70.886 79.507,147.736 73.488,148.438 	"/>
	<polygon fill="#B9BABC" points="214.469,98.864 228.637,113.376 140.443,181.379 140.083,169.331 	"/>
	<polygon fill="#B9BABC" points="245.643,148.438 250.604,165.792 136.902,253.975 182.242,200.502 	"/>
	<polygon fill="#B9BABC" points="20.016,97.798 83.412,180.668 96.16,164.731 	"/>
	<polygon fill="#B9BABC" points="46.934,58.841 225.094,256.455 237.496,242.283 	"/>
	<polygon fill="#B9BABC" points="79.166,36.885 258.035,208.287 248.123,226.707 	"/>
	<path fill="#8EC641" stroke="#FFFFFF" stroke-width="2.9507" d="M202.795,250.438c0,54.955-44.563,99.502-99.549,99.502
		c-54.964,0-99.508-44.557-99.508-99.502c0-54.979,44.547-99.521,99.508-99.521C158.234,150.916,202.795,195.467,202.795,250.438z"
		/>
	<path fill="none" stroke="#FFFFFF" stroke-width="2.6824" d="M165.096,174.088c-25.053-0.092-92.182,5.424-89.956,66.721
		c0,0,0.846,19.936,14.402,39.729c0,0,19.94,26.582,51.854,25.896c0,0,20.179,1.291,52.222-8.521"/>
</g>
</svg>
